<mxfile host="app.diagrams.net" modified="2023-09-13T14:20:03.149Z" agent="Mozilla/5.0 (Windows NT 10.0; Win64; x64) AppleWebKit/537.36 (KHTML, like Gecko) Chrome/116.0.0.0 Safari/537.36" etag="L2OH_RWLk0J6LVM9KwXa" version="21.7.5" type="device">
  <diagram name="Trang-1" id="MTc_DkptV3MO89q-04E4">
    <mxGraphModel dx="926" dy="503" grid="1" gridSize="10" guides="1" tooltips="1" connect="1" arrows="1" fold="1" page="1" pageScale="1" pageWidth="827" pageHeight="1169" math="0" shadow="0">
      <root>
        <mxCell id="0" />
        <mxCell id="1" parent="0" />
        <mxCell id="8qARs7yGm56HOAFrSega-3" style="edgeStyle=orthogonalEdgeStyle;rounded=0;orthogonalLoop=1;jettySize=auto;html=1;exitX=0.5;exitY=1;exitDx=0;exitDy=0;exitPerimeter=0;entryX=0.5;entryY=0;entryDx=0;entryDy=0;" edge="1" parent="1" source="8qARs7yGm56HOAFrSega-1" target="8qARs7yGm56HOAFrSega-2">
          <mxGeometry relative="1" as="geometry" />
        </mxCell>
        <mxCell id="8qARs7yGm56HOAFrSega-1" value="start" style="strokeWidth=2;html=1;shape=mxgraph.flowchart.start_2;whiteSpace=wrap;" vertex="1" parent="1">
          <mxGeometry x="360" y="30" width="100" height="100" as="geometry" />
        </mxCell>
        <mxCell id="8qARs7yGm56HOAFrSega-8" style="edgeStyle=orthogonalEdgeStyle;rounded=0;orthogonalLoop=1;jettySize=auto;html=1;exitX=0.5;exitY=1;exitDx=0;exitDy=0;entryX=0.5;entryY=0;entryDx=0;entryDy=0;entryPerimeter=0;" edge="1" parent="1" source="8qARs7yGm56HOAFrSega-2" target="8qARs7yGm56HOAFrSega-7">
          <mxGeometry relative="1" as="geometry" />
        </mxCell>
        <mxCell id="8qARs7yGm56HOAFrSega-2" value="a, b, c" style="shape=parallelogram;html=1;strokeWidth=2;perimeter=parallelogramPerimeter;whiteSpace=wrap;rounded=1;arcSize=12;size=0.23;" vertex="1" parent="1">
          <mxGeometry x="360" y="160" width="100" height="60" as="geometry" />
        </mxCell>
        <mxCell id="8qARs7yGm56HOAFrSega-10" style="edgeStyle=orthogonalEdgeStyle;rounded=0;orthogonalLoop=1;jettySize=auto;html=1;exitX=0;exitY=0.5;exitDx=0;exitDy=0;exitPerimeter=0;entryX=1;entryY=0.5;entryDx=0;entryDy=0;" edge="1" parent="1" source="8qARs7yGm56HOAFrSega-7" target="8qARs7yGm56HOAFrSega-9">
          <mxGeometry relative="1" as="geometry" />
        </mxCell>
        <mxCell id="8qARs7yGm56HOAFrSega-11" value="No" style="edgeLabel;html=1;align=center;verticalAlign=middle;resizable=0;points=[];" vertex="1" connectable="0" parent="8qARs7yGm56HOAFrSega-10">
          <mxGeometry y="1" relative="1" as="geometry">
            <mxPoint as="offset" />
          </mxGeometry>
        </mxCell>
        <mxCell id="8qARs7yGm56HOAFrSega-13" style="edgeStyle=orthogonalEdgeStyle;rounded=0;orthogonalLoop=1;jettySize=auto;html=1;exitX=1;exitY=0.5;exitDx=0;exitDy=0;exitPerimeter=0;entryX=0;entryY=0.5;entryDx=0;entryDy=0;entryPerimeter=0;" edge="1" parent="1" source="8qARs7yGm56HOAFrSega-7" target="8qARs7yGm56HOAFrSega-12">
          <mxGeometry relative="1" as="geometry" />
        </mxCell>
        <mxCell id="8qARs7yGm56HOAFrSega-14" value="Yes" style="edgeLabel;html=1;align=center;verticalAlign=middle;resizable=0;points=[];" vertex="1" connectable="0" parent="8qARs7yGm56HOAFrSega-13">
          <mxGeometry x="-0.1333" y="-1" relative="1" as="geometry">
            <mxPoint as="offset" />
          </mxGeometry>
        </mxCell>
        <mxCell id="8qARs7yGm56HOAFrSega-7" value="a = 0" style="strokeWidth=2;html=1;shape=mxgraph.flowchart.decision;whiteSpace=wrap;" vertex="1" parent="1">
          <mxGeometry x="360" y="260" width="100" height="100" as="geometry" />
        </mxCell>
        <mxCell id="8qARs7yGm56HOAFrSega-31" style="edgeStyle=orthogonalEdgeStyle;rounded=0;orthogonalLoop=1;jettySize=auto;html=1;exitX=0.5;exitY=1;exitDx=0;exitDy=0;entryX=0.5;entryY=0;entryDx=0;entryDy=0;entryPerimeter=0;" edge="1" parent="1" source="8qARs7yGm56HOAFrSega-9" target="8qARs7yGm56HOAFrSega-30">
          <mxGeometry relative="1" as="geometry" />
        </mxCell>
        <mxCell id="8qARs7yGm56HOAFrSega-9" value="delta = b*b - 4*a*c" style="rounded=1;whiteSpace=wrap;html=1;absoluteArcSize=1;arcSize=14;strokeWidth=2;" vertex="1" parent="1">
          <mxGeometry x="190" y="260" width="100" height="100" as="geometry" />
        </mxCell>
        <mxCell id="8qARs7yGm56HOAFrSega-16" style="edgeStyle=orthogonalEdgeStyle;rounded=0;orthogonalLoop=1;jettySize=auto;html=1;exitX=0.5;exitY=0;exitDx=0;exitDy=0;exitPerimeter=0;entryX=0.5;entryY=1;entryDx=0;entryDy=0;" edge="1" parent="1" source="8qARs7yGm56HOAFrSega-12" target="8qARs7yGm56HOAFrSega-15">
          <mxGeometry relative="1" as="geometry" />
        </mxCell>
        <mxCell id="8qARs7yGm56HOAFrSega-19" value="No" style="edgeLabel;html=1;align=center;verticalAlign=middle;resizable=0;points=[];" vertex="1" connectable="0" parent="8qARs7yGm56HOAFrSega-16">
          <mxGeometry x="-0.1" y="1" relative="1" as="geometry">
            <mxPoint as="offset" />
          </mxGeometry>
        </mxCell>
        <mxCell id="8qARs7yGm56HOAFrSega-21" style="edgeStyle=orthogonalEdgeStyle;rounded=0;orthogonalLoop=1;jettySize=auto;html=1;exitX=1;exitY=0.5;exitDx=0;exitDy=0;exitPerimeter=0;" edge="1" parent="1" source="8qARs7yGm56HOAFrSega-12" target="8qARs7yGm56HOAFrSega-20">
          <mxGeometry relative="1" as="geometry" />
        </mxCell>
        <mxCell id="8qARs7yGm56HOAFrSega-22" value="Yes" style="edgeLabel;html=1;align=center;verticalAlign=middle;resizable=0;points=[];" vertex="1" connectable="0" parent="8qARs7yGm56HOAFrSega-21">
          <mxGeometry x="-0.1667" relative="1" as="geometry">
            <mxPoint as="offset" />
          </mxGeometry>
        </mxCell>
        <mxCell id="8qARs7yGm56HOAFrSega-12" value="b = 0" style="strokeWidth=2;html=1;shape=mxgraph.flowchart.decision;whiteSpace=wrap;" vertex="1" parent="1">
          <mxGeometry x="520" y="260" width="100" height="100" as="geometry" />
        </mxCell>
        <mxCell id="8qARs7yGm56HOAFrSega-18" style="edgeStyle=orthogonalEdgeStyle;rounded=0;orthogonalLoop=1;jettySize=auto;html=1;exitX=0.5;exitY=0;exitDx=0;exitDy=0;entryX=0.5;entryY=1;entryDx=0;entryDy=0;" edge="1" parent="1" source="8qARs7yGm56HOAFrSega-15" target="8qARs7yGm56HOAFrSega-17">
          <mxGeometry relative="1" as="geometry" />
        </mxCell>
        <mxCell id="8qARs7yGm56HOAFrSega-15" value="x = -c/b" style="rounded=1;whiteSpace=wrap;html=1;absoluteArcSize=1;arcSize=14;strokeWidth=2;" vertex="1" parent="1">
          <mxGeometry x="520" y="120" width="100" height="100" as="geometry" />
        </mxCell>
        <mxCell id="8qARs7yGm56HOAFrSega-17" value="Display x" style="shape=parallelogram;html=1;strokeWidth=2;perimeter=parallelogramPerimeter;whiteSpace=wrap;rounded=1;arcSize=12;size=0.23;" vertex="1" parent="1">
          <mxGeometry x="520" y="20" width="100" height="60" as="geometry" />
        </mxCell>
        <mxCell id="8qARs7yGm56HOAFrSega-25" style="edgeStyle=orthogonalEdgeStyle;rounded=0;orthogonalLoop=1;jettySize=auto;html=1;exitX=0.5;exitY=0;exitDx=0;exitDy=0;exitPerimeter=0;entryX=0.5;entryY=1;entryDx=0;entryDy=0;" edge="1" parent="1" source="8qARs7yGm56HOAFrSega-20" target="8qARs7yGm56HOAFrSega-24">
          <mxGeometry relative="1" as="geometry" />
        </mxCell>
        <mxCell id="8qARs7yGm56HOAFrSega-28" value="No" style="edgeLabel;html=1;align=center;verticalAlign=middle;resizable=0;points=[];" vertex="1" connectable="0" parent="8qARs7yGm56HOAFrSega-25">
          <mxGeometry y="-2" relative="1" as="geometry">
            <mxPoint as="offset" />
          </mxGeometry>
        </mxCell>
        <mxCell id="8qARs7yGm56HOAFrSega-27" style="edgeStyle=orthogonalEdgeStyle;rounded=0;orthogonalLoop=1;jettySize=auto;html=1;exitX=0.5;exitY=1;exitDx=0;exitDy=0;exitPerimeter=0;entryX=0.5;entryY=0;entryDx=0;entryDy=0;" edge="1" parent="1" source="8qARs7yGm56HOAFrSega-20" target="8qARs7yGm56HOAFrSega-26">
          <mxGeometry relative="1" as="geometry" />
        </mxCell>
        <mxCell id="8qARs7yGm56HOAFrSega-29" value="Yes" style="edgeLabel;html=1;align=center;verticalAlign=middle;resizable=0;points=[];" vertex="1" connectable="0" parent="8qARs7yGm56HOAFrSega-27">
          <mxGeometry x="-0.15" y="2" relative="1" as="geometry">
            <mxPoint as="offset" />
          </mxGeometry>
        </mxCell>
        <mxCell id="8qARs7yGm56HOAFrSega-20" value="c = 0" style="strokeWidth=2;html=1;shape=mxgraph.flowchart.decision;whiteSpace=wrap;" vertex="1" parent="1">
          <mxGeometry x="680" y="260" width="100" height="100" as="geometry" />
        </mxCell>
        <mxCell id="8qARs7yGm56HOAFrSega-24" value="Pt vo nghiem" style="shape=parallelogram;html=1;strokeWidth=2;perimeter=parallelogramPerimeter;whiteSpace=wrap;rounded=1;arcSize=12;size=0.23;" vertex="1" parent="1">
          <mxGeometry x="680" y="160" width="100" height="60" as="geometry" />
        </mxCell>
        <mxCell id="8qARs7yGm56HOAFrSega-26" value="Pt vo so &lt;br&gt;nghiem" style="shape=parallelogram;html=1;strokeWidth=2;perimeter=parallelogramPerimeter;whiteSpace=wrap;rounded=1;arcSize=12;size=0.23;" vertex="1" parent="1">
          <mxGeometry x="680" y="400" width="100" height="60" as="geometry" />
        </mxCell>
        <mxCell id="8qARs7yGm56HOAFrSega-33" style="edgeStyle=orthogonalEdgeStyle;rounded=0;orthogonalLoop=1;jettySize=auto;html=1;exitX=0;exitY=0.5;exitDx=0;exitDy=0;exitPerimeter=0;entryX=1;entryY=0.5;entryDx=0;entryDy=0;" edge="1" parent="1" source="8qARs7yGm56HOAFrSega-30" target="8qARs7yGm56HOAFrSega-32">
          <mxGeometry relative="1" as="geometry" />
        </mxCell>
        <mxCell id="8qARs7yGm56HOAFrSega-34" value="Yes" style="edgeLabel;html=1;align=center;verticalAlign=middle;resizable=0;points=[];" vertex="1" connectable="0" parent="8qARs7yGm56HOAFrSega-33">
          <mxGeometry x="-0.0286" y="-1" relative="1" as="geometry">
            <mxPoint as="offset" />
          </mxGeometry>
        </mxCell>
        <mxCell id="8qARs7yGm56HOAFrSega-38" style="edgeStyle=orthogonalEdgeStyle;rounded=0;orthogonalLoop=1;jettySize=auto;html=1;exitX=0.5;exitY=1;exitDx=0;exitDy=0;exitPerimeter=0;entryX=0.5;entryY=0;entryDx=0;entryDy=0;entryPerimeter=0;" edge="1" parent="1" source="8qARs7yGm56HOAFrSega-30" target="8qARs7yGm56HOAFrSega-37">
          <mxGeometry relative="1" as="geometry" />
        </mxCell>
        <mxCell id="8qARs7yGm56HOAFrSega-40" value="No" style="edgeLabel;html=1;align=center;verticalAlign=middle;resizable=0;points=[];" vertex="1" connectable="0" parent="8qARs7yGm56HOAFrSega-38">
          <mxGeometry x="-0.2889" y="2" relative="1" as="geometry">
            <mxPoint as="offset" />
          </mxGeometry>
        </mxCell>
        <mxCell id="8qARs7yGm56HOAFrSega-30" value="delta &amp;gt; 0" style="strokeWidth=2;html=1;shape=mxgraph.flowchart.decision;whiteSpace=wrap;" vertex="1" parent="1">
          <mxGeometry x="190" y="390" width="100" height="100" as="geometry" />
        </mxCell>
        <mxCell id="8qARs7yGm56HOAFrSega-36" style="edgeStyle=orthogonalEdgeStyle;rounded=0;orthogonalLoop=1;jettySize=auto;html=1;exitX=0.5;exitY=1;exitDx=0;exitDy=0;entryX=0.5;entryY=0;entryDx=0;entryDy=0;" edge="1" parent="1" source="8qARs7yGm56HOAFrSega-32" target="8qARs7yGm56HOAFrSega-35">
          <mxGeometry relative="1" as="geometry" />
        </mxCell>
        <mxCell id="8qARs7yGm56HOAFrSega-32" value="x1 = (-b + sqrt delta) / (2*a)&lt;br&gt;x2 = (-b-sqrt delta) / (2*a)&amp;nbsp;" style="rounded=1;whiteSpace=wrap;html=1;absoluteArcSize=1;arcSize=14;strokeWidth=2;" vertex="1" parent="1">
          <mxGeometry x="20" y="390" width="100" height="100" as="geometry" />
        </mxCell>
        <mxCell id="8qARs7yGm56HOAFrSega-35" value="Display x1, &lt;br&gt;x2" style="shape=parallelogram;html=1;strokeWidth=2;perimeter=parallelogramPerimeter;whiteSpace=wrap;rounded=1;arcSize=12;size=0.23;" vertex="1" parent="1">
          <mxGeometry x="20" y="540" width="100" height="60" as="geometry" />
        </mxCell>
        <mxCell id="8qARs7yGm56HOAFrSega-41" style="edgeStyle=orthogonalEdgeStyle;rounded=0;orthogonalLoop=1;jettySize=auto;html=1;exitX=0.5;exitY=1;exitDx=0;exitDy=0;exitPerimeter=0;entryX=0.5;entryY=0;entryDx=0;entryDy=0;" edge="1" parent="1" source="8qARs7yGm56HOAFrSega-37" target="8qARs7yGm56HOAFrSega-39">
          <mxGeometry relative="1" as="geometry" />
        </mxCell>
        <mxCell id="8qARs7yGm56HOAFrSega-42" value="Yes" style="edgeLabel;html=1;align=center;verticalAlign=middle;resizable=0;points=[];" vertex="1" connectable="0" parent="8qARs7yGm56HOAFrSega-41">
          <mxGeometry x="-0.2571" y="2" relative="1" as="geometry">
            <mxPoint as="offset" />
          </mxGeometry>
        </mxCell>
        <mxCell id="8qARs7yGm56HOAFrSega-44" style="edgeStyle=orthogonalEdgeStyle;rounded=0;orthogonalLoop=1;jettySize=auto;html=1;exitX=1;exitY=0.5;exitDx=0;exitDy=0;exitPerimeter=0;entryX=0;entryY=0.5;entryDx=0;entryDy=0;" edge="1" parent="1" source="8qARs7yGm56HOAFrSega-37" target="8qARs7yGm56HOAFrSega-43">
          <mxGeometry relative="1" as="geometry" />
        </mxCell>
        <mxCell id="8qARs7yGm56HOAFrSega-48" value="No" style="edgeLabel;html=1;align=center;verticalAlign=middle;resizable=0;points=[];" vertex="1" connectable="0" parent="8qARs7yGm56HOAFrSega-44">
          <mxGeometry x="-0.2106" relative="1" as="geometry">
            <mxPoint as="offset" />
          </mxGeometry>
        </mxCell>
        <mxCell id="8qARs7yGm56HOAFrSega-37" value="delta &amp;lt; 0" style="strokeWidth=2;html=1;shape=mxgraph.flowchart.decision;whiteSpace=wrap;" vertex="1" parent="1">
          <mxGeometry x="190" y="535" width="100" height="100" as="geometry" />
        </mxCell>
        <mxCell id="8qARs7yGm56HOAFrSega-39" value="Pt vo nghiem" style="shape=parallelogram;html=1;strokeWidth=2;perimeter=parallelogramPerimeter;whiteSpace=wrap;rounded=1;arcSize=12;size=0.23;" vertex="1" parent="1">
          <mxGeometry x="190" y="670" width="100" height="60" as="geometry" />
        </mxCell>
        <mxCell id="8qARs7yGm56HOAFrSega-46" style="edgeStyle=orthogonalEdgeStyle;rounded=0;orthogonalLoop=1;jettySize=auto;html=1;exitX=0.5;exitY=1;exitDx=0;exitDy=0;entryX=0.5;entryY=0;entryDx=0;entryDy=0;" edge="1" parent="1" source="8qARs7yGm56HOAFrSega-43" target="8qARs7yGm56HOAFrSega-45">
          <mxGeometry relative="1" as="geometry" />
        </mxCell>
        <mxCell id="8qARs7yGm56HOAFrSega-43" value="x1 = x2 = -b/2a" style="rounded=1;whiteSpace=wrap;html=1;absoluteArcSize=1;arcSize=14;strokeWidth=2;" vertex="1" parent="1">
          <mxGeometry x="360" y="535" width="100" height="100" as="geometry" />
        </mxCell>
        <mxCell id="8qARs7yGm56HOAFrSega-45" value="Pt co nghiem&lt;br&gt;kep x" style="shape=parallelogram;html=1;strokeWidth=2;perimeter=parallelogramPerimeter;whiteSpace=wrap;rounded=1;arcSize=12;size=0.23;" vertex="1" parent="1">
          <mxGeometry x="360" y="670" width="100" height="60" as="geometry" />
        </mxCell>
      </root>
    </mxGraphModel>
  </diagram>
</mxfile>
